<svg width="207" height="31" viewBox="0 0 207 31" fill="none" xmlns="http://www.w3.org/2000/svg">
<path d="M10.2774 24.384C8.52804 24.384 6.91738 23.9787 5.44538 23.168C3.97338 22.3573 2.78938 21.1627 1.89338 19.584C1.01871 17.984 0.581375 16.0213 0.581375 13.696C0.581375 11.392 1.02938 9.42933 1.92538 7.808C2.84271 6.16533 4.04804 4.91733 5.54138 4.064C7.05604 3.18933 8.68804 2.752 10.4374 2.752C11.7814 2.752 12.9867 3.02933 14.0534 3.584C15.12 4.11733 16.0054 4.74667 16.7094 5.472L14.2134 8.48C13.68 7.98933 13.1147 7.59467 12.5174 7.296C11.9414 6.976 11.28 6.816 10.5334 6.816C9.59471 6.816 8.73071 7.08267 7.94138 7.616C7.17338 8.14933 6.55471 8.91733 6.08538 9.92C5.63738 10.9227 5.41338 12.128 5.41338 13.536C5.41338 15.6693 5.87204 17.3333 6.78938 18.528C7.70671 19.7227 8.93338 20.32 10.4694 20.32C11.3227 20.32 12.08 20.128 12.7414 19.744C13.424 19.36 14.0214 18.9013 14.5334 18.368L17.0294 21.312C15.28 23.36 13.0294 24.384 10.2774 24.384ZM24.2699 24.384C22.5419 24.384 21.2832 23.8187 20.4939 22.688C19.7259 21.536 19.3419 19.968 19.3419 17.984V8.128H24.0459V17.376C24.0459 18.5067 24.2059 19.296 24.5259 19.744C24.8459 20.1707 25.3472 20.384 26.0299 20.384C26.6272 20.384 27.1285 20.2453 27.5339 19.968C27.9392 19.6907 28.3765 19.2427 28.8459 18.624V8.128H33.5499V24H29.7099L29.3579 21.792H29.2619C28.6005 22.5813 27.8752 23.2107 27.0859 23.68C26.2965 24.1493 25.3579 24.384 24.2699 24.384ZM42.0094 24.384C40.388 24.384 39.2574 23.904 38.6174 22.944C37.9987 21.9627 37.6894 20.672 37.6894 19.072V1.568H42.3934V19.264C42.3934 19.7547 42.4787 20.096 42.6494 20.288C42.8414 20.48 43.0334 20.576 43.2254 20.576C43.332 20.576 43.4174 20.576 43.4814 20.576C43.5667 20.5547 43.6734 20.5333 43.8014 20.512L44.3774 24C44.1214 24.1067 43.7907 24.192 43.3854 24.256C43.0014 24.3413 42.5427 24.384 42.0094 24.384ZM46.8456 24V8.128H51.5496V24H46.8456ZM49.1816 5.792C48.3923 5.792 47.7523 5.568 47.2616 5.12C46.771 4.672 46.5256 4.07467 46.5256 3.328C46.5256 2.58133 46.771 1.984 47.2616 1.536C47.7523 1.088 48.3923 0.863998 49.1816 0.863998C49.971 0.863998 50.611 1.088 51.1016 1.536C51.5923 1.984 51.8376 2.58133 51.8376 3.328C51.8376 4.07467 51.5923 4.672 51.1016 5.12C50.611 5.568 49.971 5.792 49.1816 5.792ZM55.6894 24V8.128H59.5294L59.8494 10.144H59.9774C60.66 9.504 61.4067 8.94933 62.2174 8.48C63.0494 7.98933 63.9987 7.744 65.0654 7.744C66.7934 7.744 68.0414 8.32 68.8094 9.472C69.5987 10.6027 69.9934 12.16 69.9934 14.144V24H65.2894V14.752C65.2894 13.6 65.1294 12.8107 64.8094 12.384C64.5107 11.9573 64.02 11.744 63.3374 11.744C62.74 11.744 62.228 11.8827 61.8014 12.16C61.3747 12.416 60.9054 12.7893 60.3934 13.28V24H55.6894ZM78.0019 24.384C76.5512 24.384 75.3992 23.9253 74.5459 23.008C73.6925 22.0693 73.2659 20.928 73.2659 19.584C73.2659 17.92 73.9699 16.6187 75.3779 15.68C76.7859 14.7413 79.0579 14.112 82.1939 13.792C82.1512 13.088 81.9379 12.5333 81.5539 12.128C81.1912 11.7013 80.5725 11.488 79.6979 11.488C79.0365 11.488 78.3645 11.616 77.6819 11.872C76.9992 12.128 76.2739 12.48 75.5059 12.928L73.8099 9.824C74.8125 9.20533 75.8792 8.704 77.0099 8.32C78.1619 7.936 79.3565 7.744 80.5939 7.744C82.6205 7.744 84.1779 8.33067 85.2659 9.504C86.3539 10.6773 86.8979 12.48 86.8979 14.912V24H83.0579L82.7379 22.368H82.6099C81.9485 22.9653 81.2339 23.456 80.4659 23.84C79.7192 24.2027 78.8979 24.384 78.0019 24.384ZM79.6019 20.736C80.1352 20.736 80.5939 20.6187 80.9779 20.384C81.3832 20.128 81.7885 19.7973 82.1939 19.392V16.608C80.5299 16.8213 79.3779 17.1627 78.7379 17.632C78.0979 18.08 77.7779 18.6133 77.7779 19.232C77.7779 19.744 77.9379 20.128 78.2579 20.384C78.5992 20.6187 79.0472 20.736 79.6019 20.736ZM90.8769 24V8.128H94.7169L95.0369 10.912H95.1649C95.7409 9.84533 96.4342 9.056 97.2449 8.544C98.0555 8.01067 98.8662 7.744 99.6769 7.744C100.125 7.744 100.498 7.776 100.797 7.84C101.096 7.88267 101.352 7.95733 101.565 8.064L100.797 12.128C100.52 12.0427 100.242 11.9787 99.9649 11.936C99.7089 11.8933 99.4102 11.872 99.0689 11.872C98.4715 11.872 97.8422 12.096 97.1809 12.544C96.5409 12.9707 96.0075 13.7173 95.5809 14.784V24H90.8769ZM105.606 30.208C105.136 30.208 104.72 30.176 104.358 30.112C104.016 30.048 103.686 29.9733 103.366 29.888L104.198 26.304C104.347 26.3253 104.518 26.3573 104.71 26.4C104.902 26.464 105.083 26.496 105.254 26.496C106.043 26.496 106.651 26.304 107.078 25.92C107.504 25.536 107.824 25.0347 108.038 24.416L108.262 23.584L102.15 8.128H106.886L109.158 14.944C109.392 15.6693 109.606 16.4053 109.798 17.152C109.99 17.8987 110.192 18.6667 110.406 19.456H110.534C110.704 18.7093 110.875 17.9627 111.046 17.216C111.238 16.448 111.43 15.6907 111.622 14.944L113.542 8.128H118.054L112.55 24.16C112.059 25.4827 111.515 26.592 110.918 27.488C110.32 28.4053 109.595 29.088 108.742 29.536C107.91 29.984 106.864 30.208 105.606 30.208ZM129.179 24L125.307 3.136H130.139L131.579 12.896C131.707 13.984 131.846 15.0827 131.995 16.192C132.145 17.28 132.283 18.3787 132.411 19.488H132.539C132.753 18.3787 132.955 17.28 133.147 16.192C133.361 15.0827 133.574 13.984 133.787 12.896L136.027 3.136H140.027L142.267 12.896C142.481 13.9413 142.683 15.0187 142.875 16.128C143.089 17.2373 143.302 18.3573 143.515 19.488H143.643C143.793 18.3573 143.931 17.248 144.059 16.16C144.209 15.0507 144.358 13.9627 144.507 12.896L145.947 3.136H150.459L146.747 24H140.827L138.779 14.528C138.609 13.7173 138.449 12.9067 138.299 12.096C138.171 11.264 138.054 10.464 137.947 9.696H137.819C137.691 10.464 137.553 11.264 137.403 12.096C137.275 12.9067 137.126 13.7173 136.955 14.528L135.003 24H129.179ZM159.787 24.384C158.443 24.384 157.173 24.064 155.979 23.424C154.805 22.7627 153.856 21.8133 153.131 20.576C152.405 19.3173 152.043 17.8133 152.043 16.064C152.043 14.2933 152.405 12.7893 153.131 11.552C153.856 10.3147 154.805 9.376 155.979 8.736C157.173 8.07467 158.443 7.744 159.787 7.744C161.131 7.744 162.389 8.07467 163.563 8.736C164.736 9.376 165.685 10.3147 166.411 11.552C167.136 12.7893 167.499 14.2933 167.499 16.064C167.499 17.8133 167.136 19.3173 166.411 20.576C165.685 21.8133 164.736 22.7627 163.563 23.424C162.389 24.064 161.131 24.384 159.787 24.384ZM159.787 20.576C160.747 20.576 161.472 20.1707 161.963 19.36C162.453 18.528 162.699 17.4293 162.699 16.064C162.699 14.6773 162.453 13.5787 161.963 12.768C161.472 11.9573 160.747 11.552 159.787 11.552C158.805 11.552 158.069 11.9573 157.579 12.768C157.109 13.5787 156.875 14.6773 156.875 16.064C156.875 17.4293 157.109 18.528 157.579 19.36C158.069 20.1707 158.805 20.576 159.787 20.576ZM170.721 24V8.128H174.561L174.881 10.912H175.009C175.585 9.84533 176.278 9.056 177.089 8.544C177.899 8.01067 178.71 7.744 179.521 7.744C179.969 7.744 180.342 7.776 180.641 7.84C180.939 7.88267 181.195 7.95733 181.409 8.064L180.641 12.128C180.363 12.0427 180.086 11.9787 179.809 11.936C179.553 11.8933 179.254 11.872 178.913 11.872C178.315 11.872 177.686 12.096 177.025 12.544C176.385 12.9707 175.851 13.7173 175.425 14.784V24H170.721ZM187.791 24.384C186.169 24.384 185.039 23.904 184.399 22.944C183.78 21.9627 183.471 20.672 183.471 19.072V1.568H188.175V19.264C188.175 19.7547 188.26 20.096 188.431 20.288C188.623 20.48 188.815 20.576 189.007 20.576C189.113 20.576 189.199 20.576 189.263 20.576C189.348 20.5547 189.455 20.5333 189.583 20.512L190.159 24C189.903 24.1067 189.572 24.192 189.167 24.256C188.783 24.3413 188.324 24.384 187.791 24.384ZM198.291 24.384C196.328 24.384 194.75 23.648 193.555 22.176C192.382 20.6827 191.795 18.6453 191.795 16.064C191.795 14.336 192.104 12.8533 192.723 11.616C193.363 10.3573 194.184 9.39733 195.187 8.736C196.211 8.07467 197.278 7.744 198.387 7.744C199.262 7.744 199.998 7.89333 200.595 8.192C201.192 8.49067 201.758 8.896 202.291 9.408L202.099 6.976V1.568H206.803V24H202.963L202.643 22.432H202.515C201.96 22.9867 201.31 23.456 200.563 23.84C199.816 24.2027 199.059 24.384 198.291 24.384ZM199.507 20.544C200.019 20.544 200.478 20.4373 200.883 20.224C201.31 20.0107 201.715 19.6373 202.099 19.104V12.608C201.694 12.224 201.256 11.9573 200.787 11.808C200.339 11.6587 199.902 11.584 199.475 11.584C198.728 11.584 198.067 11.9467 197.491 12.672C196.915 13.376 196.627 14.4853 196.627 16C196.627 17.5573 196.872 18.7093 197.363 19.456C197.875 20.1813 198.59 20.544 199.507 20.544Z" fill="url(#paint0_linear_1511_324)"/>
<defs>
<linearGradient id="paint0_linear_1511_324" x1="-93.2457" y1="-42.7334" x2="274.479" y2="77.0893" gradientUnits="userSpaceOnUse">
<stop stop-color="#FFB800"/>
<stop offset="1" stop-color="#FF8A00"/>
</linearGradient>
</defs>
</svg>
